<?xml version="1.0" encoding="utf-8"?>
<!-- Generator: Adobe Illustrator 27.8.0, SVG Export Plug-In . SVG Version: 6.00 Build 0)  -->
<svg version="1.1" id="Layer_1" xmlns="http://www.w3.org/2000/svg" xmlns:xlink="http://www.w3.org/1999/xlink" x="0px" y="0px"
	 viewBox="0 0 24 24" style="enable-background:new 0 0 24 24;" xml:space="preserve">
<style type="text/css">
	.st0{fill:#B93E26;}
	.st1{fill:#134472;}
</style>
<path class="st0" d="M9.7,17.4c-1.3-0.2-2.5-0.4-3.8-0.6c-0.5-0.1-0.9-0.2-1.4-0.2c-0.2,0-0.3-0.1-0.4-0.3c-1-2.3-2-4.6-3-6.9
	c0,0-0.1-0.1,0-0.2c0.2,0,0.3,0.1,0.5,0.1c1.3,0.3,2.5,0.7,3.8,1c0.1,0,0.2,0.1,0.4,0.1c0,0,0,0,0.1,0c0,0,0,0,0,0
	c0-0.2-0.1-0.3-0.2-0.4C4.8,8.5,3.9,7,3.1,5.5C2.9,5.2,2.8,5.2,3.2,5c3.1-1.5,6.2-3,9.2-4.5c0.3-0.1,0.3-0.1,0.5,0.2
	c0.8,1.3,1.6,2.7,2.4,4c0.1,0.1,0.1,0.3,0.3,0.4c0.6-1.3,1.2-2.6,1.9-3.9c0.2,0,0.2,0.1,0.3,0.2c1.6,1.5,3.1,3,4.7,4.4
	c0.4,0.3,0.3,0.3,0.1,0.7c-0.6,1.3-1.3,2.5-1.9,3.8c-0.1,0.2-0.1,0.5,0,0.7c0.7,1.9,1.3,3.9,2,5.9c0.1,0.4,0.2,0.4-0.2,0.6
	c-2.8,2-5.6,4-8.5,6c-0.1,0-0.1,0.1-0.2,0.1c-0.1,0.1-0.2,0-0.2-0.1c0,0-0.1-0.1-0.1-0.1c-1.2-2-2.5-3.9-3.7-5.9
	C9.7,17.5,9.7,17.5,9.7,17.4c0.6-0.4,1.2-0.7,1.7-1.1c0.1-0.1,0.2-0.1,0.4-0.2c1.7-1.1,3.4-2.2,5.2-3.2c0.5-0.3,1-0.6,1.5-1
	c0.7-0.4,1.4-0.8,2.1-1.3c-0.2-0.2-0.3-0.4-0.5-0.6c-1.4-1.6-2.8-3.1-4.1-4.7c-0.2-0.3-0.2-0.3-0.6-0.1c-3,1.6-5.9,3.2-8.9,4.9
	C6,10.4,6,10.4,6.2,10.9c1.1,2,2.2,4.1,3.3,6.1C9.6,17.2,9.7,17.3,9.7,17.4L9.7,17.4z"/>
<path class="st1" d="M9.7,17.4c0-0.2-0.1-0.3-0.2-0.4c-1.1-2-2.2-4.1-3.3-6.1C6,10.4,6,10.4,6.4,10.2c3-1.6,5.9-3.2,8.9-4.9
	c0.3-0.2,0.3-0.2,0.6,0.1c1.4,1.6,2.8,3.1,4.1,4.7c0.2,0.2,0.3,0.4,0.5,0.6c-0.7,0.5-1.4,0.9-2.1,1.3c-0.4-1-1-1.7-2-2.1
	c-1.4-0.6-2.7-0.4-3.9,0.4c-2,1.3-2.8,4.2-1.1,6.2C10.9,16.8,10.3,17.1,9.7,17.4C9.7,17.4,9.7,17.4,9.7,17.4z"/>
</svg>
